<?xml version="1.0" standalone="no"?>
<!DOCTYPE svg PUBLIC "-//W3C//DTD SVG 20010904//EN"
 "http://www.w3.org/TR/2001/REC-SVG-20010904/DTD/svg10.dtd">
<svg version="1.0" xmlns="http://www.w3.org/2000/svg"
 width="1024.000000pt" height="1024.000000pt" viewBox="0 0 1024.000000 1024.000000"
 preserveAspectRatio="xMidYMid meet">
<metadata>
Created by potrace 1.14, written by Peter Selinger 2001-2017
</metadata>
<g transform="translate(0.000000,1024.000000) scale(0.100000,-0.100000)"
fill="#000000" stroke="none">
<path d="M495 8711 c-4 -7 -14 -11 -23 -10 -10 1 -33 -4 -52 -12 -19 -7 -38
-12 -42 -11 -5 1 -8 -3 -8 -10 0 -6 -3 -9 -6 -5 -7 6 -73 -33 -103 -61 -10 -9
-27 -24 -37 -32 -10 -9 -30 -31 -44 -49 -14 -19 -32 -41 -41 -50 -8 -10 -13
-23 -11 -29 2 -7 -1 -12 -6 -12 -9 0 -13 -11 -29 -70 -2 -8 -5 -21 -5 -27 -1
-7 -6 -13 -12 -13 -6 0 -4 -5 4 -10 11 -7 11 -10 2 -10 -7 0 -10 -4 -7 -10 3
-5 0 -10 -7 -10 -9 0 -9 -3 2 -10 8 -5 10 -10 4 -10 -8 0 -9 -11 -4 -35 4 -19
5 -35 1 -35 -4 0 -4 -27 -1 -60 3 -33 3 -60 -1 -60 -4 0 -4 -13 1 -30 5 -17 5
-30 0 -30 -5 0 -5 -13 0 -30 5 -16 5 -30 1 -30 -4 0 -4 -27 -1 -60 3 -33 3
-60 -1 -60 -4 0 -4 -13 1 -30 5 -17 5 -30 0 -30 -5 0 -5 -13 0 -30 5 -16 5
-30 1 -30 -4 0 -4 -27 -1 -60 3 -33 3 -60 -1 -60 -4 0 -4 -13 1 -30 5 -17 5
-30 0 -30 -5 0 -5 -13 0 -30 5 -16 5 -30 1 -30 -4 0 -4 -27 -1 -60 3 -33 3
-60 -1 -60 -4 0 -4 -13 1 -30 5 -17 5 -30 0 -30 -5 0 -5 -13 0 -30 5 -16 5
-30 1 -30 -4 0 -4 -27 -1 -60 3 -33 3 -60 -1 -60 -4 0 -4 -13 1 -30 5 -17 5
-30 0 -30 -5 0 -5 -13 0 -30 5 -16 5 -30 1 -30 -4 0 -4 -27 -1 -60 3 -33 3
-60 -1 -60 -4 0 -4 -13 1 -30 5 -17 5 -30 0 -30 -5 0 -5 -13 0 -30 5 -16 5
-30 1 -30 -4 0 -4 -27 -1 -60 3 -33 3 -60 -1 -60 -4 0 -4 -13 1 -30 5 -17 5
-30 0 -30 -5 0 -5 -13 0 -30 5 -16 5 -30 1 -30 -4 0 -4 -27 -1 -60 3 -33 3
-60 -1 -60 -4 0 -4 -13 1 -30 5 -17 5 -30 0 -30 -5 0 -5 -13 0 -30 5 -16 5
-30 1 -30 -4 0 -4 -27 -1 -60 3 -33 3 -60 -1 -60 -4 0 -4 -13 1 -30 5 -17 5
-30 0 -30 -5 0 -5 -13 0 -30 5 -16 5 -30 1 -30 -4 0 -4 -27 -1 -60 3 -33 3
-60 -1 -60 -4 0 -4 -13 1 -30 5 -17 5 -30 0 -30 -5 0 -5 -13 0 -30 5 -16 5
-30 1 -30 -4 0 -4 -27 -1 -60 3 -33 3 -60 -1 -60 -4 0 -4 -13 1 -30 5 -17 5
-30 0 -30 -5 0 -5 -13 0 -30 5 -16 5 -30 1 -30 -4 0 -4 -27 -1 -60 3 -33 3
-60 -1 -60 -4 0 -4 -13 1 -30 5 -17 5 -30 0 -30 -5 0 -5 -13 0 -30 5 -16 5
-30 1 -30 -4 0 -4 -27 -1 -60 3 -33 3 -60 -1 -60 -4 0 -4 -13 1 -30 5 -17 5
-30 0 -30 -5 0 -5 -13 0 -30 5 -16 5 -30 1 -30 -4 0 -4 -27 -1 -60 3 -33 3
-60 -1 -60 -4 0 -4 -13 1 -30 5 -17 5 -30 0 -30 -5 0 -5 -13 0 -30 5 -16 5
-30 1 -30 -4 0 -4 -27 -1 -60 3 -33 3 -60 -1 -60 -4 0 -4 -13 1 -30 5 -17 5
-30 0 -30 -5 0 -5 -13 0 -30 5 -16 5 -30 1 -30 -4 0 -4 -27 -1 -60 3 -33 3
-60 -1 -60 -4 0 -4 -13 1 -30 5 -17 5 -30 0 -30 -5 0 -5 -13 0 -30 5 -16 5
-30 1 -30 -4 0 -4 -27 -1 -60 3 -33 3 -60 -1 -60 -4 0 -4 -13 1 -30 5 -17 5
-30 0 -30 -5 0 -5 -13 0 -30 5 -16 5 -30 1 -30 -4 0 -4 -27 -1 -60 3 -33 3
-60 -1 -60 -4 0 -4 -13 1 -30 5 -17 5 -30 0 -30 -5 0 -5 -13 0 -30 5 -16 5
-30 1 -30 -4 0 -4 -27 -1 -60 3 -33 3 -60 -1 -60 -4 0 -4 -13 1 -30 5 -17 5
-30 0 -30 -5 0 -5 -13 0 -30 5 -16 5 -30 1 -30 -4 0 -4 -27 -1 -60 3 -33 3
-60 -1 -60 -4 0 -4 -13 1 -30 5 -17 5 -30 0 -30 -5 0 -5 -13 0 -30 5 -16 5
-30 1 -30 -4 0 -4 -27 -1 -60 3 -33 3 -60 -1 -60 -4 0 -4 -13 1 -30 5 -18 5
-30 0 -30 -6 0 -6 -10 0 -25 6 -16 6 -25 -1 -25 -6 0 -6 -6 0 -19 6 -10 7 -21
4 -25 -3 -3 0 -6 7 -6 7 0 11 -3 8 -6 -4 -3 -2 -20 4 -37 5 -18 10 -37 12 -43
1 -7 7 -18 14 -26 6 -8 9 -18 5 -21 -3 -4 -1 -7 6 -7 8 0 11 -6 7 -16 -3 -8
-2 -12 4 -9 6 3 10 3 10 -2 0 -4 10 -20 23 -35 12 -14 30 -35 39 -46 9 -11 13
-24 10 -28 -4 -4 -1 -4 5 0 7 4 20 -2 30 -13 9 -11 20 -18 24 -15 5 3 14 -4
21 -16 7 -11 21 -20 30 -20 10 0 18 -5 18 -11 0 -5 4 -7 10 -4 5 3 10 2 10 -3
0 -5 6 -9 13 -10 23 -2 46 -8 53 -14 3 -4 12 -4 20 -1 8 3 14 1 14 -5 0 -5 42
-9 100 -9 55 0 103 -3 106 -6 3 -3 17 -2 30 3 14 6 26 6 29 -1 4 -5 10 -7 15
-4 18 11 90 13 83 3 -3 -6 -1 -8 4 -5 18 12 123 15 116 4 -3 -6 -1 -7 6 -3 14
9 189 12 197 3 3 -3 17 -2 30 3 14 6 26 6 29 -1 4 -5 10 -7 15 -4 18 11 90 13
83 3 -3 -6 -1 -8 4 -5 18 12 123 15 116 4 -3 -6 -1 -7 6 -3 14 9 189 12 197 3
3 -3 17 -2 30 3 14 6 26 6 29 -1 4 -5 10 -7 15 -4 18 11 90 13 83 3 -3 -6 -1
-8 4 -5 18 12 123 15 116 4 -3 -6 -1 -7 6 -3 14 9 189 12 197 3 3 -3 17 -2 30
3 14 6 26 6 29 -1 4 -5 10 -7 15 -4 18 11 90 13 83 3 -3 -6 -1 -8 4 -5 18 12
123 15 116 4 -3 -6 -1 -7 6 -3 14 9 349 11 357 3 3 -3 17 -2 30 3 14 6 26 6
29 -1 4 -5 10 -7 15 -4 18 11 90 13 83 3 -3 -6 -1 -8 4 -5 18 12 123 15 116 4
-3 -6 -1 -7 6 -3 14 9 189 12 197 3 3 -3 17 -2 30 3 14 6 26 6 29 -1 4 -5 10
-7 15 -4 18 11 90 13 83 3 -3 -6 -1 -8 4 -5 18 12 123 15 116 4 -3 -6 -1 -7 6
-3 14 9 189 12 197 3 3 -3 17 -2 30 3 14 6 26 6 29 -1 4 -5 10 -7 15 -4 18 11
90 13 83 3 -3 -6 -1 -8 4 -5 18 12 123 15 116 4 -3 -6 -1 -7 6 -3 14 9 189 12
197 3 3 -3 17 -2 30 3 14 6 26 6 29 -1 4 -5 10 -7 15 -4 18 11 90 13 83 3 -3
-6 -1 -8 4 -5 18 12 123 15 116 4 -3 -6 -1 -7 6 -3 14 9 189 12 197 3 3 -3 16
-2 28 2 11 5 30 5 41 1 21 -7 27 -40 10 -52 -7 -5 -6 -8 0 -8 12 0 13 -40 1
-58 -4 -7 -2 -12 5 -12 8 0 8 -4 -1 -15 -9 -11 -9 -15 -1 -15 9 0 9 -5 1 -20
-6 -11 -7 -20 -2 -20 10 0 9 -36 0 -46 -4 -3 -3 -16 2 -29 5 -14 5 -26 -3 -34
-7 -7 -7 -11 -1 -11 12 0 12 -29 -1 -49 -6 -10 -4 -12 6 -6 12 8 12 6 0 -8
-10 -13 -10 -17 -1 -17 9 0 9 -4 -1 -17 -10 -11 -10 -14 -1 -9 15 9 16 -6 0
-22 -9 -9 -9 -12 3 -12 12 0 12 -2 -1 -10 -11 -7 -11 -10 -2 -10 10 0 10 -5 2
-20 -6 -11 -7 -20 -2 -20 10 0 9 -36 0 -46 -4 -3 -3 -16 2 -29 5 -14 5 -26 -3
-34 -7 -7 -7 -11 -1 -11 6 0 10 -10 8 -23 -1 -12 -3 -22 -4 -22 -1 0 -3 -10
-4 -22 -2 -13 0 -23 4 -23 3 0 6 -9 6 -19 0 -11 -5 -17 -10 -14 -5 4 -7 -1 -4
-9 5 -13 -2 -15 -45 -13 -29 1 -57 -2 -64 -7 -7 -5 -14 -5 -17 0 -3 5 -25 8
-48 7 -25 -2 -46 2 -50 8 -6 9 -8 9 -8 0 0 -7 -10 -10 -26 -7 -17 3 -23 1 -19
-7 5 -8 2 -8 -11 -1 -22 10 -83 10 -101 -1 -6 -4 -15 -3 -18 3 -4 6 -16 8 -27
4 -13 -4 -24 -1 -29 7 -6 9 -9 10 -9 2 0 -7 -10 -10 -26 -7 -17 3 -23 1 -19
-7 5 -8 2 -8 -11 -1 -22 10 -83 10 -101 -1 -6 -4 -15 -3 -18 3 -4 6 -16 8 -27
4 -13 -4 -24 -1 -29 7 -6 9 -9 10 -9 2 0 -7 -10 -10 -26 -7 -18 3 -23 1 -18
-7 5 -8 3 -9 -7 -3 -20 12 -99 12 -99 0 0 -8 -3 -8 -8 0 -8 12 -90 13 -109 1
-6 -4 -14 -3 -17 1 -6 10 -46 10 -63 -1 -6 -4 -14 -3 -17 1 -6 10 -46 10 -62
-1 -6 -3 -14 -3 -18 0 -12 12 -66 12 -66 0 0 -9 -2 -9 -8 -1 -8 12 -50 13 -69
1 -6 -4 -14 -3 -17 1 -6 10 -46 10 -63 -1 -6 -4 -14 -3 -17 1 -6 10 -46 10
-62 -1 -6 -3 -14 -3 -18 0 -11 11 -66 12 -66 2 0 -6 -6 -7 -12 -2 -7 4 -21 6
-32 4 -13 -2 -16 1 -10 11 6 10 4 10 -9 -1 -9 -7 -17 -10 -17 -5 0 5 -5 2 -10
-6 -5 -8 -10 -10 -10 -4 0 14 -132 13 -142 -1 -5 -7 -8 -6 -8 1 0 7 -20 10
-52 9 -31 -2 -56 2 -60 9 -5 7 -8 5 -8 -6 0 -10 -5 -18 -11 -18 -8 0 -8 -5 1
-15 9 -11 9 -15 1 -15 -7 0 -9 -5 -5 -11 10 -17 11 -89 2 -89 -5 0 -4 -8 1
-18 6 -11 6 -24 0 -35 -6 -9 -6 -17 -2 -17 5 0 9 -9 9 -20 0 -11 -4 -20 -9
-20 -5 0 -4 -7 3 -15 9 -11 9 -15 1 -15 -7 0 -9 -5 -4 -13 12 -19 12 -37 1
-37 -6 0 -5 -6 2 -15 9 -11 9 -15 1 -15 -7 0 -9 -5 -5 -11 10 -17 11 -89 2
-89 -5 0 -4 -8 1 -18 6 -11 6 -24 0 -35 -6 -9 -6 -17 -2 -17 5 0 9 -9 9 -20 0
-11 -4 -20 -9 -20 -5 0 -4 -7 3 -15 9 -11 9 -15 1 -15 -7 0 -9 -5 -5 -12 5 -7
7 -27 5 -44 -2 -30 0 -31 31 -31 19 1 39 -2 46 -7 7 -4 12 -4 12 1 0 4 28 7
62 5 71 -3 71 -3 118 0 20 1 41 -1 48 -6 7 -4 12 -4 12 1 0 4 28 7 62 5 71 -3
71 -3 118 0 20 1 41 -1 48 -6 7 -4 12 -4 12 1 0 4 28 7 62 5 71 -3 71 -3 118
0 20 1 41 -1 48 -6 7 -4 12 -4 12 1 0 4 28 7 62 5 79 -4 77 -4 116 1 18 2 32
-1 32 -7 0 -7 3 -8 8 -1 8 12 132 14 132 2 0 -4 8 -3 18 2 10 6 24 6 32 1 8
-5 17 -7 20 -5 4 2 30 6 58 9 37 4 52 2 52 -7 0 -7 3 -8 8 -2 8 12 132 14 132
2 0 -4 8 -3 18 2 10 6 24 6 32 1 8 -5 17 -7 20 -5 4 2 30 6 58 9 37 4 52 2 52
-7 0 -7 3 -8 8 -2 8 12 132 14 132 2 0 -4 8 -3 18 2 10 6 24 6 32 1 8 -5 17
-7 20 -5 4 2 30 6 58 9 37 4 52 2 52 -7 0 -7 3 -8 8 -2 8 12 132 14 132 2 0
-4 8 -3 18 2 10 6 24 6 32 1 8 -5 17 -7 21 -5 12 8 99 13 94 5 -2 -4 13 -4 35
0 21 4 44 4 51 -1 7 -4 19 -4 28 -1 21 8 65 7 79 -2 7 -4 12 -4 12 1 0 4 28 7
62 5 71 -3 71 -3 118 0 20 1 41 -1 48 -6 7 -4 12 -4 12 1 0 4 28 7 62 5 71 -3
71 -3 118 0 20 1 41 -1 48 -6 7 -4 12 -4 12 1 0 4 28 7 62 5 71 -3 71 -3 118
0 20 1 41 -1 48 -6 7 -4 12 -4 12 1 0 4 28 7 62 5 71 -3 71 -3 118 0 20 1 41
-1 48 -6 7 -4 12 -4 12 1 0 4 28 7 62 5 71 -3 71 -3 118 0 20 1 41 -1 48 -6 7
-4 12 -4 12 1 0 4 28 7 62 5 71 -3 71 -3 118 0 20 1 41 -1 48 -6 7 -4 12 -4
12 1 0 4 28 7 62 5 71 -3 71 -3 118 0 20 1 41 -1 48 -6 7 -4 12 -4 12 1 0 4
28 7 62 5 71 -3 71 -3 118 0 20 1 41 -1 48 -6 7 -4 12 -4 12 1 0 4 28 7 62 5
71 -3 72 -3 113 0 22 2 30 8 29 21 -1 9 3 17 8 17 6 0 5 6 -2 15 -9 11 -9 15
-1 15 9 0 9 5 1 20 -8 15 -8 20 2 20 8 0 9 3 3 8 -12 8 -14 202 -2 202 4 0 3
9 -3 20 -8 15 -8 20 2 20 8 0 9 3 3 8 -12 9 -13 65 -1 73 4 4 3 16 -3 28 -9
16 -9 21 1 21 9 0 9 3 -2 10 -13 9 -13 10 0 10 9 0 11 3 5 8 -14 10 -15 42 -1
42 6 0 4 5 -4 10 -9 6 -10 10 -3 10 8 0 9 9 3 30 -5 17 -5 30 0 30 5 0 4 13
-1 29 -8 21 -15 28 -26 24 -12 -5 -14 -3 -8 8 7 11 6 12 -6 3 -8 -6 -24 -10
-37 -8 -15 3 -21 0 -16 -7 4 -8 1 -8 -12 -1 -22 10 -83 10 -101 -1 -6 -4 -15
-3 -18 3 -4 6 -16 8 -27 4 -13 -4 -24 -1 -29 7 -6 9 -9 10 -9 2 0 -7 -10 -10
-26 -7 -18 3 -23 1 -18 -7 5 -8 3 -9 -7 -3 -21 12 -103 13 -111 0 -5 -7 -8 -7
-8 -1 0 13 -89 13 -109 1 -10 -6 -12 -5 -7 3 6 9 0 10 -20 5 -21 -6 -25 -4
-19 7 7 11 6 12 -6 3 -8 -6 -23 -10 -34 -8 -10 1 -25 -2 -32 -8 -8 -6 -13 -6
-13 -1 0 11 -89 11 -107 0 -6 -4 -14 -3 -17 2 -3 5 -26 7 -51 5 -30 -2 -45 1
-46 9 0 7 -4 3 -9 -8 -5 -11 -9 -15 -9 -9 -1 8 -24 10 -71 8 -52 -2 -69 0 -63
9 5 9 3 9 -8 1 -8 -6 -24 -10 -37 -8 -15 3 -21 0 -16 -7 4 -8 1 -8 -12 -1 -22
10 -83 10 -101 -1 -6 -4 -15 -3 -18 3 -4 6 -16 8 -27 4 -13 -4 -24 -1 -29 7
-6 9 -9 10 -9 2 0 -7 -10 -10 -26 -7 -17 3 -23 1 -19 -7 5 -8 2 -8 -11 -1 -22
10 -83 10 -101 -1 -6 -4 -15 -3 -18 3 -4 6 -16 8 -27 4 -13 -4 -24 -1 -29 7
-6 9 -9 10 -9 2 0 -7 -10 -10 -26 -7 -18 3 -23 1 -18 -7 5 -8 3 -9 -7 -4 -21
14 -109 14 -109 1 0 -7 -3 -7 -8 -1 -9 13 -95 14 -104 0 -5 -6 -8 -6 -8 3 0 8
-8 10 -26 6 -21 -6 -25 -4 -19 7 6 11 5 12 -6 2 -13 -13 -38 -19 -26 -6 4 3 2
12 -4 20 -9 10 -8 13 1 13 10 0 10 3 0 15 -10 12 -10 15 1 15 10 0 10 3 1 12
-7 7 -8 17 -1 30 7 12 6 18 -1 18 -7 0 -8 6 0 19 7 14 6 21 -3 24 -9 4 -9 6 1
6 10 1 10 6 2 21 -8 14 -8 20 0 20 7 0 8 6 1 18 -6 11 -6 24 0 35 7 11 6 17
-1 17 -8 0 -8 6 0 20 8 15 8 20 -1 20 -8 0 -8 4 1 15 10 12 10 15 0 15 -10 0
-10 3 0 15 10 12 10 15 0 15 -10 0 -10 3 0 15 10 12 10 15 0 15 -10 0 -10 3 0
15 8 10 9 15 2 15 -6 0 -9 6 -7 13 10 24 12 76 4 71 -5 -3 -5 6 1 20 7 18 6
26 -1 26 -8 0 -7 5 1 15 10 12 10 15 0 15 -10 0 -10 3 0 15 9 11 10 19 1 28
-8 10 -7 17 1 25 7 7 8 12 3 12 -6 0 -10 11 -10 25 0 14 4 25 9 25 5 0 3 7 -4
15 -9 10 -9 15 -1 15 6 0 11 6 11 13 0 14 34 17 46 4 4 -3 15 -2 25 3 12 7 20
7 24 0 4 -6 10 -8 15 -5 18 11 70 12 70 1 0 -7 3 -7 8 -1 6 9 38 11 67 5 6 -1
14 -2 18 -1 43 8 67 7 67 -3 0 -7 3 -7 8 -1 8 12 42 13 60 2 6 -5 12 -5 12 0
0 4 20 8 44 8 25 1 43 -2 40 -6 -2 -4 12 -3 31 1 20 4 38 4 41 -1 3 -5 9 -7
14 -4 18 11 70 12 70 1 0 -7 3 -7 8 -1 8 12 42 13 60 2 6 -5 12 -5 12 0 0 4
20 8 44 8 25 1 43 -2 40 -6 -2 -4 12 -3 31 1 20 4 38 4 41 -1 3 -5 9 -7 14 -4
18 11 70 12 70 1 0 -7 3 -7 8 -1 8 12 42 13 60 2 6 -5 12 -5 12 0 0 4 20 8 44
8 25 1 43 -2 40 -6 -2 -4 12 -3 31 1 20 4 38 4 41 -1 3 -5 9 -7 14 -4 18 11
70 12 70 1 0 -7 3 -7 8 -1 8 12 42 13 60 2 6 -5 12 -5 12 0 0 4 20 8 44 8 25
1 43 -2 40 -6 -2 -4 12 -3 31 1 20 4 38 4 41 -1 3 -5 9 -7 14 -4 18 11 70 12
70 1 0 -7 3 -7 8 -1 8 12 42 13 60 2 6 -5 12 -5 12 0 0 4 20 8 44 8 25 1 43
-2 40 -6 -2 -4 12 -3 31 1 20 4 38 4 41 -1 3 -5 9 -7 14 -4 18 11 70 12 70 1
0 -7 3 -7 8 -1 8 12 42 13 60 2 6 -5 12 -5 12 0 0 4 20 8 44 8 25 1 43 -2 41
-6 -3 -3 14 -3 35 1 22 4 43 4 46 -1 2 -4 16 -4 29 1 15 6 27 6 30 -1 4 -5 10
-7 15 -4 18 11 90 13 83 3 -3 -6 -1 -8 4 -5 18 12 123 15 116 4 -3 -6 -1 -7 6
-3 14 9 189 12 197 3 3 -3 17 -2 30 3 14 6 26 6 29 -1 4 -5 10 -7 15 -4 18 11
90 13 83 3 -3 -6 -1 -8 4 -5 18 12 123 15 116 4 -3 -6 -1 -7 6 -3 14 9 189 12
197 3 3 -3 17 -2 30 3 14 6 26 6 29 -1 4 -5 10 -7 15 -4 18 11 90 13 83 3 -3
-6 -1 -8 4 -5 18 12 123 15 116 4 -3 -6 -1 -7 6 -3 14 9 189 12 197 3 3 -3 17
-2 30 3 14 6 26 6 29 -1 4 -5 10 -7 15 -4 18 11 90 13 83 3 -3 -6 -1 -8 4 -5
18 12 123 15 116 4 -3 -6 -1 -7 6 -3 14 9 189 12 197 3 3 -3 17 -2 30 3 14 6
26 6 29 -1 4 -5 11 -7 16 -3 6 3 27 7 47 9 20 2 36 7 35 12 -1 5 14 8 32 8 19
-1 32 2 29 7 -3 4 2 8 11 8 17 0 56 20 67 35 4 6 8 6 8 2 0 -5 6 -2 14 5 8 7
25 21 40 32 43 31 62 48 46 40 -8 -3 -1 7 15 24 41 41 51 55 59 79 4 12 13 27
22 33 11 10 12 16 2 27 -9 11 -8 13 3 11 9 -2 14 5 13 20 -1 12 2 22 5 22 7 0
14 40 14 82 0 17 4 25 11 21 6 -4 6 0 -1 8 -10 12 -10 18 -1 27 7 7 8 12 2 12
-5 0 -10 9 -11 20 -1 13 2 18 10 13 9 -5 9 -3 0 8 -10 12 -10 18 -1 27 7 7 8
12 2 12 -5 0 -10 9 -11 20 -1 13 2 18 10 13 9 -5 9 -3 0 8 -10 12 -10 18 -1
27 7 7 8 12 2 12 -5 0 -10 9 -11 20 -1 13 2 18 10 13 9 -5 9 -3 0 8 -10 12
-10 18 -1 27 7 7 8 12 2 12 -5 0 -10 9 -11 20 -1 13 2 18 10 13 9 -5 9 -3 0 8
-10 12 -10 18 -1 27 7 7 8 12 2 12 -5 0 -10 9 -11 20 -1 13 2 18 10 14 9 -5 9
-3 0 6 -9 10 -10 17 -2 27 7 7 7 13 2 13 -5 0 -9 9 -10 20 -1 13 2 18 10 13 9
-5 9 -3 0 8 -10 12 -10 18 -1 27 7 7 8 12 2 12 -5 0 -10 9 -11 20 -1 13 2 18
10 13 9 -5 9 -3 0 8 -10 12 -10 18 -1 27 7 7 8 12 2 12 -5 0 -10 9 -11 20 -1
13 2 18 10 13 9 -5 9 -3 0 8 -10 12 -10 18 -1 27 7 7 8 12 2 12 -5 0 -10 9
-11 20 -1 13 2 18 10 13 9 -5 9 -3 0 8 -10 12 -10 18 -1 27 7 7 8 12 2 12 -5
0 -10 9 -11 20 -1 13 2 18 10 13 9 -5 9 -3 0 8 -10 12 -10 18 -1 27 7 7 8 12
2 12 -5 0 -10 9 -11 20 -1 13 2 18 10 13 9 -5 9 -3 0 8 -10 12 -10 18 -1 27 7
7 8 12 2 12 -5 0 -10 9 -11 20 -1 13 2 18 10 13 9 -5 9 -3 0 8 -10 12 -10 18
-1 27 7 7 8 12 2 12 -5 0 -10 9 -11 20 -1 13 2 18 10 13 9 -5 9 -3 0 8 -10 12
-10 18 -1 27 7 7 8 12 2 12 -5 0 -10 9 -11 20 -1 13 2 18 10 13 9 -5 9 -3 0 8
-10 12 -10 18 -1 27 7 7 8 12 2 12 -5 0 -10 9 -11 20 -1 13 2 18 10 13 9 -5 9
-3 0 8 -10 12 -10 18 -1 27 7 7 8 12 2 12 -5 0 -10 9 -11 20 -1 13 2 18 10 13
9 -5 9 -3 0 8 -10 12 -10 18 -1 27 7 7 8 12 2 12 -5 0 -10 9 -11 20 -1 13 2
18 10 13 9 -5 9 -3 0 8 -10 12 -10 18 -1 27 7 7 8 12 2 12 -5 0 -10 9 -11 20
-1 13 2 18 10 13 9 -5 9 -3 0 8 -10 12 -10 18 -1 27 7 7 8 12 2 12 -5 0 -10 9
-11 20 -1 13 2 18 10 13 9 -5 9 -3 0 8 -10 12 -10 18 -1 27 7 7 8 12 2 12 -5
0 -10 9 -11 20 -1 13 2 18 10 13 9 -5 9 -3 0 8 -10 12 -10 18 -1 27 7 7 8 12
2 12 -5 0 -10 9 -11 20 -1 13 2 18 10 13 9 -5 9 -3 0 8 -10 12 -10 18 -1 27 7
7 8 12 2 12 -5 0 -10 9 -11 20 -1 13 2 18 10 13 9 -5 9 -3 0 8 -10 12 -10 18
-1 27 7 7 8 12 2 12 -5 0 -10 9 -11 20 -1 13 2 18 10 13 9 -5 9 -3 0 8 -10 12
-10 18 -1 27 7 7 8 12 2 12 -5 0 -10 9 -11 20 -1 13 2 18 10 13 9 -5 9 -3 0 8
-10 12 -10 18 -1 27 7 7 8 12 2 12 -5 0 -10 9 -11 20 -1 13 2 18 10 13 9 -5 9
-3 0 8 -10 12 -10 18 -1 27 7 7 8 12 2 12 -5 0 -10 9 -11 20 -1 13 2 18 10 13
9 -5 9 -3 0 8 -10 12 -10 18 -1 27 7 7 8 12 2 12 -5 0 -10 9 -11 20 -1 13 2
18 10 13 9 -5 9 -3 0 8 -10 12 -10 18 -1 27 7 7 8 12 2 12 -5 0 -10 9 -11 20
-1 13 2 18 10 13 9 -5 9 -3 0 8 -10 12 -10 18 -1 27 7 7 8 12 2 12 -5 0 -10 9
-11 20 -1 13 2 18 10 13 9 -5 9 -3 0 8 -10 12 -10 18 -1 27 7 7 8 12 2 12 -5
0 -10 9 -11 20 -1 13 2 18 10 13 9 -5 9 -3 0 8 -10 12 -10 18 -1 27 7 7 8 12
2 12 -5 0 -10 9 -11 20 -1 13 2 18 10 13 9 -5 9 -3 0 8 -10 12 -10 18 -1 27 7
7 8 12 2 12 -5 0 -10 9 -11 20 -1 13 2 18 10 13 9 -5 9 -3 0 8 -10 12 -10 18
-1 27 7 7 8 12 2 12 -5 0 -10 9 -11 20 -1 13 2 18 10 13 9 -5 9 -3 0 8 -10 12
-10 18 -1 27 7 7 8 12 2 12 -5 0 -10 9 -11 20 -1 13 2 18 10 13 9 -5 9 -3 0 8
-10 12 -10 18 -1 27 7 7 8 12 2 12 -5 0 -10 9 -11 20 -1 13 2 18 10 13 9 -5 9
-3 0 8 -10 12 -10 18 -1 27 7 7 8 12 2 12 -5 0 -10 9 -11 20 -1 13 2 18 10 13
9 -5 9 -3 0 8 -10 12 -10 18 -1 27 7 7 8 12 2 12 -5 0 -10 9 -11 20 -1 13 2
18 10 13 9 -5 9 -3 0 8 -10 12 -10 18 -1 27 7 7 8 12 2 12 -5 0 -10 9 -11 20
-1 13 2 18 10 13 9 -5 9 -3 0 8 -10 12 -10 18 -1 27 7 7 8 12 2 12 -5 0 -10 9
-11 20 -1 13 2 18 10 13 9 -5 9 -3 0 8 -10 12 -10 18 -1 27 7 7 8 12 2 12 -5
0 -10 9 -11 20 -1 13 2 18 10 13 9 -5 9 -3 0 8 -10 12 -10 18 -1 27 7 7 8 12
2 12 -5 0 -10 9 -11 20 -1 13 2 18 10 13 9 -5 9 -3 0 8 -10 12 -10 18 -1 27 7
7 8 12 2 12 -5 0 -10 9 -11 20 -1 13 2 18 10 13 9 -5 9 -3 0 8 -10 12 -10 18
-1 27 7 7 8 12 2 12 -5 0 -10 9 -11 20 -1 13 2 18 10 13 9 -5 9 -3 0 8 -10 12
-10 18 -1 27 7 7 8 12 2 12 -5 0 -10 9 -11 20 -1 13 2 18 10 13 9 -5 9 -3 0 8
-10 12 -10 18 -1 27 7 7 8 12 2 12 -5 0 -10 9 -11 20 -1 13 2 18 10 13 9 -5 9
-3 0 8 -10 12 -10 18 -1 27 7 7 8 12 2 12 -5 0 -10 9 -11 20 -1 13 2 18 10 13
9 -5 9 -3 0 8 -10 12 -10 18 -1 27 7 7 8 12 2 12 -5 0 -10 9 -11 20 -1 13 2
18 10 13 9 -5 9 -3 0 8 -10 12 -10 18 -1 27 7 7 8 12 2 12 -5 0 -10 9 -11 20
-1 13 2 18 10 13 9 -5 9 -3 0 8 -10 12 -10 18 -1 27 7 7 8 12 2 12 -5 0 -10 9
-11 20 -1 13 2 18 10 13 9 -5 9 -3 0 8 -10 12 -10 18 -1 27 7 7 8 12 2 12 -5
0 -10 9 -11 20 -1 13 2 18 10 13 9 -5 9 -3 0 8 -10 12 -10 18 -1 27 7 7 8 12
2 12 -5 0 -10 9 -11 20 -1 13 2 18 10 13 9 -5 9 -3 0 8 -10 12 -10 18 -1 27 7
7 8 12 2 12 -5 0 -10 9 -11 20 -1 13 2 18 10 14 9 -5 9 -3 0 6 -9 10 -10 17
-2 27 7 7 7 13 2 13 -5 0 -9 9 -10 20 -1 13 2 18 10 14 9 -5 9 -3 0 6 -9 10
-10 17 -2 27 7 7 7 13 2 13 -5 0 -9 9 -10 20 -1 13 2 18 10 13 9 -5 9 -3 0 8
-10 12 -10 18 -1 27 7 7 8 12 2 12 -5 0 -10 9 -11 20 -1 13 2 18 10 13 9 -5 9
-3 0 8 -10 12 -10 18 -1 27 7 7 8 12 2 12 -5 0 -10 9 -11 20 -1 13 2 18 10 13
9 -5 9 -3 0 8 -10 12 -10 18 -1 27 7 7 8 12 2 12 -5 0 -10 9 -11 20 -1 13 2
18 10 13 9 -5 9 -3 0 8 -10 12 -10 18 -1 27 7 7 8 12 2 12 -5 0 -10 9 -11 20
-1 13 2 18 10 13 9 -5 9 -3 0 8 -10 12 -10 18 -1 27 7 7 8 12 2 12 -5 0 -10 9
-11 20 -1 13 2 18 10 13 9 -5 9 -3 0 8 -10 12 -10 18 -1 27 7 7 8 12 2 12 -5
0 -10 9 -11 20 -1 13 2 18 10 13 9 -5 9 -3 0 8 -10 12 -10 18 -1 27 7 7 8 12
2 12 -5 0 -10 9 -11 20 -1 13 2 18 10 13 9 -5 9 -3 0 8 -10 12 -10 18 -1 27 7
7 8 12 2 12 -5 0 -10 9 -11 20 -1 13 2 18 10 13 9 -5 9 -3 0 8 -10 12 -10 18
-1 27 8 8 9 12 1 12 -6 0 -10 11 -9 24 0 13 4 22 9 19 4 -2 7 1 7 6 0 6 -4 11
-8 11 -4 0 -8 8 -9 18 -2 52 -8 82 -16 82 -4 0 -5 5 -2 10 3 6 2 10 -3 10 -6
0 -8 9 -5 20 3 11 1 20 -4 20 -5 0 -17 17 -26 38 -9 20 -30 52 -47 71 -16 18
-27 38 -23 44 3 6 1 7 -5 3 -7 -4 -12 -2 -12 5 0 7 -3 10 -6 6 -3 -3 -17 4
-30 16 -41 39 -58 52 -65 50 -4 -1 -13 4 -19 12 -7 8 -21 15 -32 15 -10 0 -17
3 -15 8 5 6 -22 12 -75 15 -10 1 -18 4 -18 8 0 12 -140 15 -144 4 -3 -6 -10
-3 -16 5 -8 10 -13 11 -16 4 -3 -7 -18 -9 -45 -4 -23 4 -42 3 -45 -2 -4 -6
-10 -5 -15 3 -7 11 -9 11 -9 1 0 -7 -5 -10 -11 -7 -13 9 -119 12 -119 4 0 -3
-20 -3 -45 1 -30 5 -45 3 -45 -4 0 -6 -4 -5 -9 3 -6 9 -11 10 -15 2 -4 -6 -12
-8 -18 -5 -13 8 -108 11 -108 3 0 -4 -18 -3 -40 1 -24 4 -43 3 -46 -2 -4 -6
-10 -5 -15 3 -7 11 -9 11 -9 1 0 -7 -5 -10 -11 -7 -13 9 -119 12 -119 4 0 -3
-20 -3 -45 1 -30 5 -45 3 -45 -4 0 -6 -4 -5 -9 3 -6 9 -11 10 -15 2 -4 -6 -12
-9 -17 -5 -13 8 -189 11 -189 3 0 -3 -20 -3 -45 1 -30 5 -45 3 -45 -4 0 -6 -4
-5 -9 3 -6 9 -11 10 -15 2 -4 -6 -12 -9 -17 -5 -13 8 -189 11 -189 3 0 -3 -20
-3 -45 1 -30 5 -45 3 -45 -4 0 -6 -4 -5 -9 3 -6 9 -11 10 -15 2 -4 -6 -12 -9
-17 -5 -13 8 -189 11 -189 3 0 -3 -20 -3 -45 1 -30 5 -45 3 -45 -4 0 -6 -4 -5
-9 3 -6 9 -11 10 -15 2 -4 -6 -12 -9 -17 -5 -15 9 -209 10 -209 0 0 -5 -7 -3
-15 4 -12 10 -15 10 -15 -1 0 -9 -3 -10 -8 -4 -4 6 -36 10 -72 10 -36 0 -68
-4 -72 -10 -5 -6 -12 -4 -19 5 -7 10 -12 11 -15 4 -3 -7 -18 -9 -45 -4 -23 4
-42 3 -45 -2 -4 -6 -10 -5 -15 3 -7 11 -9 11 -9 1 0 -7 -5 -10 -11 -7 -13 9
-119 12 -119 4 0 -3 -20 -3 -45 1 -30 5 -45 3 -45 -4 0 -6 -4 -5 -9 3 -6 9
-11 10 -15 2 -4 -6 -12 -8 -18 -5 -13 8 -108 11 -108 3 0 -4 -18 -3 -40 1 -24
4 -43 3 -46 -2 -4 -6 -10 -5 -15 3 -6 10 -9 10 -9 2 0 -7 -7 -10 -15 -7 -25
10 -135 10 -135 0 0 -5 -7 -3 -15 4 -12 10 -15 10 -15 -1 0 -9 -3 -10 -8 -4
-4 6 -36 10 -72 10 -36 0 -68 -4 -72 -10 -5 -7 -10 -7 -15 0 -10 12 -123 13
-123 1 0 -5 -7 -3 -15 4 -12 10 -15 10 -15 -1 0 -9 -3 -10 -8 -4 -4 6 -36 10
-72 10 -36 0 -68 -4 -72 -10 -5 -6 -12 -4 -19 5 -7 10 -12 11 -15 4 -3 -7 -18
-9 -45 -4 -23 4 -42 3 -45 -2 -4 -6 -10 -5 -15 3 -7 11 -9 11 -9 1 0 -7 -5
-10 -11 -7 -13 9 -119 12 -119 4 0 -3 -20 -3 -45 1 -30 5 -45 3 -45 -4 0 -6
-4 -5 -9 3 -6 9 -11 10 -15 2 -4 -6 -12 -8 -18 -5 -13 8 -108 11 -108 3 0 -4
-18 -3 -40 1 -24 4 -43 3 -46 -2 -4 -6 -10 -5 -15 3 -6 10 -9 10 -9 2 0 -7 -7
-10 -15 -7 -25 10 -135 10 -135 0 0 -5 -7 -3 -15 4 -12 10 -15 10 -15 -1 0 -9
-3 -10 -8 -4 -4 6 -36 10 -72 10 -36 0 -68 -4 -72 -10 -5 -7 -10 -7 -15 0 -8
11 -103 14 -103 4 0 -3 -20 -3 -45 1 -30 5 -45 3 -45 -4 0 -6 -4 -5 -9 3 -6 9
-11 10 -15 2 -4 -6 -12 -9 -17 -5 -13 8 -189 11 -189 3 0 -3 -20 -3 -45 1 -30
5 -45 3 -45 -4 0 -6 -4 -5 -9 3 -6 9 -11 10 -15 2 -4 -6 -12 -9 -17 -5 -13 8
-189 11 -189 3 0 -3 -20 -3 -45 1 -30 5 -45 3 -45 -4 0 -6 -4 -5 -9 3 -6 9
-11 10 -15 2 -4 -6 -12 -9 -17 -5 -13 8 -189 11 -189 3 0 -3 -20 -3 -45 1 -30
5 -45 3 -45 -4 0 -6 -4 -5 -9 3 -6 9 -11 10 -15 2 -4 -6 -12 -8 -18 -5 -13 8
-108 11 -108 3 0 -4 -18 -3 -40 1 -24 4 -43 3 -46 -2 -4 -6 -10 -5 -15 3 -7
11 -9 11 -9 1 0 -7 -5 -10 -11 -7 -13 9 -119 12 -119 4 0 -3 -20 -3 -45 1 -30
5 -45 3 -45 -4 0 -6 -4 -5 -9 3 -6 9 -11 10 -15 2 -4 -6 -12 -8 -18 -5 -13 8
-108 11 -108 3 0 -4 -18 -3 -40 1 -24 4 -43 3 -46 -2 -4 -6 -10 -5 -15 3 -6
10 -9 10 -9 2 0 -7 -7 -10 -15 -7 -25 10 -135 10 -135 0 0 -5 -7 -3 -15 4 -12
10 -15 10 -15 -1 0 -9 -3 -10 -8 -4 -4 6 -36 10 -72 10 -36 0 -68 -4 -72 -10
-5 -6 -12 -4 -19 5 -7 10 -12 11 -15 4 -3 -7 -18 -9 -45 -4 -23 4 -42 3 -45
-2 -4 -6 -10 -5 -15 3 -7 11 -9 11 -9 1 0 -7 -5 -10 -11 -7 -13 9 -119 12
-119 4 0 -3 -20 -3 -45 1 -30 5 -45 3 -45 -4 0 -6 -4 -5 -9 3 -6 9 -11 10 -15
2 -4 -6 -12 -8 -18 -5 -13 8 -108 11 -108 3 0 -4 -18 -3 -40 1 -24 4 -43 3
-46 -2 -4 -6 -10 -5 -15 3 -6 10 -9 10 -9 2 0 -7 -7 -10 -15 -7 -25 10 -135
10 -135 0 0 -5 -7 -3 -15 4 -12 10 -15 10 -15 -1 0 -9 -3 -10 -8 -4 -4 6 -36
10 -72 10 -36 0 -68 -4 -72 -10 -5 -6 -12 -4 -19 5 -7 10 -12 11 -15 4 -3 -7
-18 -9 -45 -4 -23 4 -42 3 -45 -2 -4 -6 -10 -5 -15 3 -7 11 -9 11 -9 1 0 -7
-5 -10 -11 -7 -13 9 -119 12 -119 4 0 -3 -20 -3 -45 1 -30 5 -45 3 -45 -4 0
-6 -4 -5 -9 3 -6 9 -11 10 -15 2 -4 -6 -12 -8 -18 -5 -13 8 -108 11 -108 3 0
-4 -18 -3 -40 1 -24 4 -43 3 -46 -2 -4 -6 -10 -5 -15 3 -7 11 -9 11 -9 1 0 -7
-5 -10 -11 -7 -13 9 -119 12 -119 4 0 -3 -20 -3 -45 1 -30 5 -45 3 -45 -4 0
-6 -4 -5 -9 3 -6 9 -11 10 -15 2 -4 -6 -12 -9 -17 -5 -13 8 -189 11 -189 3 0
-3 -20 -3 -45 1 -29 4 -46 3 -49 -4 -2 -6 -5 -5 -5 3 -1 10 -4 11 -15 2 -8 -7
-16 -8 -19 -4 -3 4 -46 6 -97 3 -50 -3 -98 -1 -106 3 -9 5 -14 3 -14 -5 0 -10
-2 -10 -9 1 -6 9 -10 10 -16 2z m381 -684 c4 -3 12 -3 18 0 18 12 136 10 136
-1 0 -7 3 -8 8 -1 10 14 74 17 66 3 -5 -7 -2 -8 6 -3 22 13 80 14 80 1 0 -7 3
-7 8 -1 10 14 74 17 66 3 -5 -7 -2 -8 7 -3 17 11 159 13 166 2 3 -4 10 -4 16
1 14 10 293 9 303 -1 4 -3 12 -3 18 0 18 12 216 10 216 -2 0 -7 3 -7 8 0 10
14 74 17 66 3 -5 -7 -2 -8 6 -3 22 13 80 14 80 1 0 -7 3 -7 8 -1 9 13 74 17
67 4 -4 -5 3 -6 17 -1 28 10 59 9 75 -1 6 -4 14 -4 16 0 6 10 208 10 224 0 6
-4 14 -4 16 0 6 10 214 10 223 0 4 -3 12 -3 18 0 18 12 136 10 136 -1 0 -7 3
-8 8 -1 10 14 74 17 66 3 -5 -7 -2 -8 6 -3 22 13 80 14 80 1 0 -7 3 -7 8 -1
10 14 74 17 66 3 -5 -7 -2 -8 7 -3 17 11 159 13 166 2 3 -4 10 -4 16 1 14 10
293 9 303 -1 4 -3 12 -3 18 0 18 12 216 10 216 -2 0 -7 3 -7 8 0 10 14 74 17
66 3 -5 -7 -2 -8 6 -3 22 13 80 14 80 1 0 -7 3 -7 8 -1 9 13 74 17 67 4 -4 -5
3 -6 17 -1 28 10 59 9 75 -1 6 -4 14 -4 16 0 6 10 208 10 224 0 6 -4 14 -4 16
0 6 10 214 10 223 0 4 -3 12 -3 18 0 18 12 136 10 136 -1 0 -7 3 -8 8 -1 10
14 74 17 66 3 -5 -7 -2 -8 6 -3 22 13 80 14 80 1 0 -7 3 -7 8 -1 9 13 74 17
67 4 -4 -5 3 -6 17 -1 28 10 59 9 75 -1 6 -4 14 -4 16 0 6 10 208 10 224 0 6
-4 14 -4 16 0 6 10 208 10 224 0 6 -4 14 -4 16 1 7 9 128 9 144 -1 6 -4 14 -4
16 0 6 10 208 10 224 0 6 -4 14 -4 16 0 6 10 208 10 224 0 6 -4 14 -4 16 1 7
9 128 9 144 -1 6 -4 14 -4 16 0 6 10 208 10 224 0 6 -4 14 -4 16 0 6 10 208
10 224 0 6 -4 14 -4 16 1 7 9 128 9 144 -1 6 -4 14 -4 16 0 6 10 208 10 224 0
6 -4 14 -4 16 0 6 10 214 10 223 0 4 -3 12 -3 18 0 18 12 136 10 136 -1 0 -7
3 -8 8 -1 10 14 74 17 66 3 -5 -7 -2 -8 6 -3 22 13 80 14 80 1 0 -7 3 -7 8 -1
9 13 74 17 67 4 -4 -5 3 -6 17 -1 28 10 59 9 75 -1 6 -4 14 -4 16 0 6 10 208
10 224 0 6 -4 14 -4 16 0 6 10 214 10 223 0 4 -3 12 -3 18 0 18 12 136 10 136
-1 0 -7 3 -8 8 -1 10 14 74 17 66 3 -5 -7 -2 -8 6 -3 22 13 80 14 80 1 0 -7 3
-7 8 -1 10 14 74 17 66 3 -5 -7 -2 -8 7 -2 18 11 151 12 166 1 6 -4 13 -4 16
0 4 6 263 9 358 4 12 -1 16 -9 14 -29 -1 -16 -5 -34 -9 -40 -3 -6 -2 -14 4
-17 8 -5 7 -11 -1 -21 -7 -9 -8 -14 -1 -14 11 0 10 -38 -1 -57 -4 -6 -2 -15 4
-19 8 -4 7 -9 -2 -15 -11 -7 -11 -9 -1 -9 10 0 10 -5 2 -20 -6 -11 -7 -20 -2
-20 10 0 9 -30 -1 -47 -4 -6 -4 -14 1 -17 9 -5 9 -47 -1 -63 -4 -7 -3 -15 3
-18 8 -5 7 -11 -1 -21 -7 -9 -8 -14 -1 -14 11 0 10 -38 -1 -57 -4 -6 -2 -15 4
-19 8 -4 7 -9 -2 -15 -11 -7 -11 -9 -1 -9 10 0 10 -5 2 -20 -6 -11 -7 -20 -2
-20 10 0 9 -30 -1 -47 -4 -6 -3 -14 3 -18 6 -4 7 -13 1 -23 -5 -9 -5 -26 0
-37 10 -27 11 -37 0 -31 -9 6 -7 -29 4 -64 5 -15 4 -20 -4 -16 -8 5 -8 0 -1
-18 6 -17 6 -27 -1 -32 -8 -4 -8 -9 0 -17 7 -7 7 -14 0 -24 -8 -9 -8 -13 -1
-13 11 0 10 -38 -1 -57 -4 -6 -2 -15 4 -19 8 -4 7 -9 -2 -15 -11 -7 -11 -9 -1
-9 10 0 10 -5 2 -20 -6 -11 -7 -20 -2 -20 10 0 9 -30 -1 -47 -4 -6 -3 -14 3
-18 6 -4 7 -13 1 -23 -5 -9 -5 -26 0 -37 10 -27 11 -37 0 -31 -9 6 -7 -29 4
-64 5 -15 4 -20 -4 -16 -8 5 -8 0 -1 -18 6 -17 6 -27 -1 -32 -8 -4 -8 -9 0
-17 7 -7 7 -14 0 -24 -8 -9 -8 -13 -1 -13 11 0 10 -38 -1 -57 -4 -6 -2 -15 4
-19 8 -4 7 -9 -2 -15 -11 -7 -11 -9 -1 -9 10 0 10 -5 2 -20 -6 -11 -7 -20 -2
-20 10 0 9 -30 -1 -47 -4 -6 -4 -14 1 -17 9 -5 9 -47 -1 -63 -4 -7 -3 -15 3
-18 8 -5 7 -11 -1 -21 -7 -9 -8 -14 -1 -14 11 0 10 -38 -1 -57 -4 -6 -2 -15 4
-19 8 -4 7 -9 -2 -15 -11 -7 -11 -9 -1 -9 10 0 10 -5 2 -20 -6 -11 -7 -20 -2
-20 10 0 9 -30 -1 -47 -4 -6 -3 -14 3 -18 6 -4 7 -13 1 -23 -5 -9 -5 -26 0
-37 10 -27 11 -37 0 -31 -9 6 -7 -29 4 -64 5 -15 4 -20 -4 -16 -8 5 -8 0 -1
-18 6 -17 6 -27 -1 -32 -8 -4 -8 -9 0 -17 7 -7 7 -14 0 -24 -8 -9 -8 -13 -1
-13 11 0 10 -38 -1 -57 -4 -6 -2 -15 4 -19 8 -4 7 -9 -2 -15 -11 -7 -11 -9 -1
-9 10 0 10 -5 2 -20 -6 -11 -7 -20 -2 -20 10 0 9 -30 -1 -47 -4 -6 -3 -14 3
-18 6 -4 7 -13 1 -23 -5 -9 -5 -26 0 -37 10 -27 11 -37 0 -31 -9 6 -7 -29 4
-64 5 -15 4 -20 -4 -16 -8 5 -8 0 -1 -18 6 -17 6 -27 -1 -32 -8 -4 -8 -9 0
-17 7 -7 7 -14 0 -24 -8 -9 -8 -13 -1 -13 11 0 10 -38 -1 -57 -4 -6 -2 -15 4
-19 8 -4 7 -9 -2 -15 -11 -7 -11 -9 -1 -9 10 0 10 -5 2 -20 -6 -11 -7 -20 -2
-20 10 0 9 -30 -1 -47 -4 -6 -4 -14 1 -17 9 -5 9 -47 -1 -63 -4 -7 -3 -15 3
-18 8 -5 7 -11 -1 -21 -7 -9 -8 -14 -1 -14 11 0 10 -38 -1 -57 -4 -6 -2 -15 4
-19 8 -4 7 -9 -2 -15 -11 -7 -11 -9 -1 -9 10 0 10 -5 2 -20 -6 -11 -7 -20 -2
-20 10 0 9 -30 -1 -47 -4 -6 -3 -14 3 -18 6 -4 7 -13 1 -23 -5 -9 -5 -26 0
-37 10 -27 11 -37 0 -31 -9 6 -7 -29 4 -64 5 -15 4 -20 -4 -16 -8 5 -8 0 -1
-18 6 -17 6 -27 -1 -32 -8 -4 -8 -9 0 -17 7 -7 7 -14 0 -24 -8 -9 -8 -13 -1
-13 11 0 10 -38 -1 -57 -4 -6 -2 -15 4 -19 8 -4 7 -9 -2 -15 -11 -7 -11 -9 -1
-9 10 0 10 -5 2 -20 -6 -11 -7 -20 -2 -20 10 0 9 -30 -1 -47 -4 -6 -3 -14 3
-18 6 -4 7 -13 1 -23 -5 -9 -5 -26 0 -37 10 -27 11 -37 0 -31 -9 6 -7 -29 4
-64 5 -15 4 -20 -4 -16 -8 5 -8 0 -1 -18 6 -17 6 -27 -1 -32 -8 -4 -8 -9 0
-17 7 -7 7 -14 0 -24 -8 -9 -8 -13 -1 -13 11 0 10 -38 -1 -57 -4 -6 -2 -15 4
-19 8 -4 7 -9 -2 -15 -11 -7 -11 -9 -1 -9 10 0 10 -5 2 -20 -6 -11 -7 -20 -2
-20 10 0 9 -30 -1 -47 -4 -6 -4 -14 1 -17 9 -5 9 -47 -1 -63 -4 -7 -3 -15 3
-18 8 -5 7 -11 -1 -21 -7 -9 -8 -14 -1 -14 11 0 10 -38 -1 -57 -4 -6 -2 -15 4
-19 8 -4 7 -9 -2 -15 -11 -7 -11 -9 -1 -9 10 0 10 -5 2 -20 -6 -11 -7 -20 -2
-20 10 0 9 -30 -1 -47 -4 -6 -3 -14 3 -18 6 -4 7 -13 1 -23 -5 -9 -5 -26 0
-37 11 -29 11 -37 -2 -29 -8 5 -9 2 -2 -11 5 -9 8 -28 5 -41 -3 -19 -8 -22
-23 -14 -10 6 -20 6 -23 2 -5 -9 -89 -7 -105 2 -5 4 -12 2 -15 -3 -3 -5 -21
-6 -40 -1 -19 4 -37 5 -40 2 -6 -5 -200 -7 -221 -2 -5 1 -13 1 -17 0 -19 -5
-76 -3 -86 3 -6 4 -14 3 -17 -3 -5 -8 -11 -8 -20 0 -9 8 -15 8 -20 0 -9 -14
-28 -13 -19 3 5 9 4 9 -6 0 -8 -7 -22 -8 -40 -3 -16 5 -31 6 -34 3 -8 -8 -311
-8 -324 0 -6 4 -14 3 -17 -3 -5 -8 -11 -8 -20 0 -9 8 -15 8 -20 0 -3 -5 -11
-10 -16 -10 -6 0 -7 5 -3 12 5 7 3 8 -6 3 -17 -10 -62 -11 -77 -2 -7 4 -15 3
-18 -3 -5 -8 -11 -8 -20 0 -9 8 -15 8 -20 0 -9 -14 -28 -13 -19 3 5 9 4 9 -6
0 -8 -7 -22 -8 -40 -3 -16 5 -31 6 -34 3 -8 -8 -311 -8 -324 0 -6 4 -14 3 -17
-3 -5 -8 -11 -8 -20 0 -9 8 -15 8 -20 0 -3 -5 -11 -10 -16 -10 -6 0 -7 5 -3
12 5 7 3 8 -6 3 -16 -10 -70 -11 -93 -2 -9 3 -18 3 -21 -1 -5 -9 -130 -7 -144
2 -6 3 -13 3 -15 -1 -6 -10 -109 -9 -124 0 -7 4 -15 3 -18 -3 -5 -8 -11 -8
-20 0 -9 8 -15 8 -20 0 -9 -14 -28 -13 -19 2 5 10 4 10 -6 1 -8 -7 -22 -8 -40
-3 -16 5 -31 6 -34 3 -8 -8 -311 -8 -324 0 -6 4 -14 3 -17 -3 -5 -8 -11 -8
-20 0 -9 8 -15 8 -20 0 -3 -5 -11 -10 -16 -10 -6 0 -7 5 -3 12 5 7 3 8 -6 3
-16 -10 -70 -11 -93 -2 -9 3 -18 3 -21 -1 -5 -9 -130 -7 -144 2 -6 3 -13 3
-15 -1 -6 -10 -130 -8 -145 1 -6 3 -13 3 -15 -1 -6 -10 -130 -8 -145 1 -6 3
-13 3 -15 -1 -6 -10 -109 -9 -124 0 -7 4 -15 3 -18 -3 -5 -8 -11 -8 -20 0 -9
8 -15 8 -20 0 -9 -14 -28 -13 -19 3 5 9 4 9 -6 0 -8 -7 -22 -8 -40 -3 -16 5
-31 6 -34 3 -8 -8 -311 -8 -324 0 -6 4 -14 3 -17 -3 -5 -8 -11 -8 -20 0 -9 8
-15 8 -20 0 -3 -5 -11 -10 -16 -10 -6 0 -7 5 -3 12 5 7 3 8 -6 3 -16 -10 -70
-11 -93 -2 -9 3 -18 3 -21 -1 -5 -9 -130 -7 -144 2 -6 3 -13 3 -16 -2 -4 -7
-71 -8 -101 -2 -5 1 -14 1 -20 0 -27 -5 -213 -2 -223 4 -6 3 -13 2 -16 -3 -3
-5 -21 -6 -40 -1 -19 4 -37 5 -40 2 -6 -5 -200 -7 -221 -2 -5 1 -14 1 -20 0
-23 -4 -94 -2 -103 4 -6 3 -13 3 -15 -1 -6 -10 -130 -8 -145 1 -6 3 -13 3 -15
-1 -6 -10 -109 -9 -124 0 -7 4 -15 3 -18 -3 -5 -8 -11 -8 -20 0 -9 8 -15 8
-20 0 -9 -14 -28 -13 -19 3 5 9 4 9 -6 0 -8 -7 -22 -8 -40 -3 -16 5 -31 6 -34
3 -8 -8 -311 -8 -324 0 -6 4 -14 3 -17 -3 -5 -8 -11 -8 -20 0 -9 8 -15 8 -20
0 -3 -5 -11 -10 -16 -10 -6 0 -7 5 -3 12 5 7 3 8 -6 3 -16 -10 -70 -11 -93 -2
-9 3 -18 3 -21 -1 -5 -9 -130 -7 -144 2 -6 3 -13 3 -16 -2 -4 -7 -71 -8 -101
-2 -5 1 -14 1 -20 0 -27 -5 -213 -2 -223 4 -6 3 -13 2 -16 -3 -3 -5 -21 -6
-40 -1 -19 4 -37 5 -40 2 -8 -8 -211 -6 -224 2 -6 3 -13 2 -16 -3 -3 -5 -21
-6 -40 -1 -19 4 -37 5 -40 2 -8 -8 -211 -6 -224 2 -6 3 -13 2 -16 -3 -3 -5
-21 -6 -40 -1 -19 4 -37 5 -40 2 -6 -5 -200 -7 -221 -2 -5 1 -14 1 -20 0 -23
-4 -94 -2 -103 4 -6 3 -13 3 -15 -1 -6 -10 -130 -8 -145 1 -6 3 -13 3 -15 -1
-6 -10 -109 -9 -124 0 -7 4 -15 3 -18 -3 -5 -8 -11 -8 -20 0 -9 8 -15 8 -20 0
-9 -14 -28 -13 -19 3 5 9 4 9 -6 0 -8 -7 -22 -8 -40 -3 -16 5 -31 6 -34 3 -8
-8 -311 -8 -324 0 -6 4 -14 3 -17 -3 -5 -8 -11 -8 -20 0 -9 8 -15 8 -20 0 -3
-5 -11 -10 -16 -10 -6 0 -7 5 -3 12 5 7 3 8 -6 3 -16 -10 -70 -11 -93 -2 -9 3
-18 3 -21 -1 -3 -6 -77 -7 -142 -3 -13 1 -13 99 0 120 5 8 5 12 0 9 -5 -4 -9
36 -9 92 -1 59 3 96 9 93 5 -4 6 0 0 8 -11 19 -12 899 0 892 5 -4 6 0 1 8 -12
19 -13 219 -1 212 5 -4 6 -1 1 7 -12 20 -14 260 -2 253 6 -4 7 -1 2 8 -12 19
-13 219 -1 212 5 -4 6 -1 1 7 -12 20 -14 260 -2 253 6 -4 7 -1 1 8 -11 19 -12
859 0 851 5 -3 6 1 1 8 -12 20 -14 260 -2 253 6 -4 7 -1 2 8 -12 19 -13 219
-1 212 5 -4 6 -1 1 7 -12 20 -14 160 -2 153 6 -4 7 -1 2 7 -12 20 -14 260 -2
253 6 -4 7 -1 2 8 -12 19 -13 219 -1 212 5 -4 6 -1 0 8 -4 8 -9 120 -9 249 l0
236 62 -1 c34 -1 65 -4 69 -8z"/>
</g>
</svg>
