<?xml version="1.0" standalone="no"?>
<!DOCTYPE svg PUBLIC "-//W3C//DTD SVG 20010904//EN"
 "http://www.w3.org/TR/2001/REC-SVG-20010904/DTD/svg10.dtd">
<svg version="1.0" xmlns="http://www.w3.org/2000/svg"
 width="1024.000000pt" height="1024.000000pt" viewBox="0 0 1024.000000 1024.000000"
 preserveAspectRatio="xMidYMid meet">
<metadata>
Created by potrace 1.14, written by Peter Selinger 2001-2017
</metadata>
<g transform="translate(0.000000,1024.000000) scale(0.100000,-0.100000)"
fill="#000000" stroke="none">
<path d="M879 9508 c-1 -2 -2 -319 -3 -705 l-1 -702 27 -6 c15 -4 32 -13 39
-21 6 -8 15 -14 19 -14 11 0 85 -34 485 -225 66 -31 158 -75 205 -97 174 -82
215 -103 221 -111 3 -5 8 -8 10 -7 7 4 169 -68 179 -79 3 -3 10 -7 15 -8 6 -1
71 -30 145 -66 269 -128 367 -175 480 -228 63 -29 118 -58 122 -64 4 -5 8 -7
8 -3 0 5 31 -8 70 -28 38 -19 71 -34 72 -33 2 2 39 -16 83 -38 44 -23 125 -62
180 -88 55 -26 142 -68 193 -93 52 -26 97 -47 100 -47 4 0 40 -17 81 -38 40
-20 80 -37 87 -37 8 0 14 -4 14 -10 0 -5 6 -10 14 -10 7 0 47 -17 87 -39 41
-21 77 -39 81 -40 17 -3 143 -66 146 -73 2 -4 10 -4 18 -1 8 3 14 0 14 -6 0
-6 4 -11 10 -11 5 0 51 -20 102 -46 51 -25 94 -45 96 -44 1 0 57 -26 125 -59
67 -32 176 -85 242 -117 66 -32 125 -58 130 -58 6 -1 12 -3 15 -6 6 -6 112
-58 245 -120 50 -23 135 -64 190 -90 55 -27 150 -72 210 -100 61 -29 146 -70
190 -92 44 -22 81 -39 82 -39 2 1 51 -22 110 -50 337 -161 420 -200 433 -204
3 -1 64 -30 135 -64 216 -104 285 -137 410 -196 183 -86 209 -99 217 -110 4
-5 8 -7 8 -3 0 7 60 -21 385 -178 77 -37 147 -69 155 -70 8 -2 16 -8 18 -13 2
-6 12 -11 23 -11 34 0 20 -17 -28 -36 -27 -10 -51 -17 -55 -16 -5 1 -8 -2 -8
-8 0 -5 -7 -10 -16 -10 -14 0 -71 -23 -139 -57 -16 -8 -37 -16 -45 -18 -8 -2
-63 -24 -122 -49 -59 -25 -112 -46 -117 -46 -6 0 -11 -5 -11 -11 0 -5 -4 -8
-8 -5 -5 3 -19 -1 -33 -7 -43 -23 -144 -62 -151 -59 -5 1 -8 -3 -8 -9 0 -5 -4
-7 -10 -4 -5 3 -10 1 -10 -6 0 -7 -3 -10 -6 -7 -3 4 -30 -5 -60 -18 -30 -13
-54 -20 -54 -16 0 4 -4 3 -8 -3 -10 -15 -49 -35 -67 -35 -8 0 -15 -5 -15 -11
0 -5 -5 -7 -10 -4 -6 4 -16 3 -23 -3 -11 -8 -146 -67 -157 -67 -3 -1 -27 -11
-54 -23 -27 -12 -50 -22 -52 -22 -2 0 -28 -11 -58 -25 -30 -14 -58 -25 -62
-25 -4 0 -35 -13 -70 -30 -34 -16 -74 -32 -88 -36 -15 -3 -29 -10 -32 -15 -3
-5 -10 -7 -15 -4 -5 4 -9 2 -9 -3 0 -5 -6 -9 -12 -9 -7 0 -35 -10 -61 -22 -27
-12 -83 -36 -125 -53 -43 -16 -81 -34 -86 -39 -6 -5 -16 -9 -23 -9 -8 0 -33
-9 -56 -21 -23 -11 -50 -22 -60 -24 -10 -2 -37 -13 -60 -24 -36 -17 -111 -50
-127 -56 -3 -1 -18 -7 -33 -13 -16 -7 -30 -12 -31 -12 -2 0 -25 -10 -52 -22
-27 -12 -52 -23 -56 -24 -5 -1 -11 -3 -15 -4 -5 -1 -11 -2 -15 -1 -5 0 -8 -4
-8 -11 0 -6 -3 -9 -6 -6 -5 5 -50 -13 -172 -68 -18 -9 -42 -17 -53 -19 -12 -2
-26 -8 -33 -13 -6 -5 -54 -26 -106 -47 -90 -36 -121 -49 -225 -95 -25 -11 -52
-20 -60 -20 -8 0 -15 -5 -15 -12 0 -6 -3 -9 -6 -6 -3 4 -31 -5 -62 -19 -68
-30 -96 -41 -187 -78 -38 -16 -75 -33 -81 -37 -7 -5 -22 -11 -34 -13 -12 -2
-41 -13 -64 -23 -114 -52 -151 -67 -158 -65 -4 2 -8 -1 -8 -5 0 -5 -6 -9 -12
-9 -7 -1 -55 -19 -106 -41 -51 -23 -95 -41 -98 -41 -2 0 -24 -8 -47 -19 -68
-31 -109 -48 -162 -67 -27 -10 -54 -22 -60 -26 -5 -4 -71 -32 -145 -62 -74
-30 -153 -63 -175 -73 -22 -10 -44 -18 -50 -20 -5 -1 -40 -16 -78 -33 -37 -17
-73 -31 -80 -31 -7 0 -24 -8 -37 -17 -14 -10 -25 -16 -25 -14 0 2 -22 -6 -49
-17 -27 -12 -50 -22 -51 -22 -1 0 -20 -8 -41 -17 -22 -9 -42 -16 -46 -15 -5 1
-8 -3 -8 -10 0 -6 -3 -9 -6 -5 -6 5 -28 -3 -134 -50 -59 -26 -82 -35 -97 -39
-7 -1 -27 -10 -45 -19 -18 -9 -78 -34 -132 -56 -54 -22 -112 -47 -128 -55 -17
-9 -38 -17 -47 -19 -9 -2 -59 -22 -110 -45 -51 -23 -98 -43 -105 -44 -6 -1
-22 -8 -36 -16 -14 -7 -26 -13 -27 -12 -3 1 -48 -17 -110 -44 -21 -10 -42 -18
-48 -19 -8 -2 -150 -61 -230 -95 -41 -18 -111 -48 -150 -65 -22 -10 -46 -17
-52 -16 -7 1 -13 -2 -13 -7 0 -5 -6 -9 -12 -9 -7 0 -38 -11 -68 -25 -82 -38
-114 -51 -125 -53 -6 -2 -28 -11 -50 -21 l-40 -19 0 -703 c0 -386 4 -702 8
-702 4 0 22 7 38 16 17 8 41 17 52 20 12 2 23 8 25 14 2 5 12 10 21 10 10 0
21 3 25 8 4 4 11 7 14 8 4 0 34 13 67 29 33 15 65 29 70 30 10 2 95 40 295
130 71 32 129 57 140 60 3 0 37 16 75 34 39 18 75 34 80 35 6 2 37 15 70 30
59 27 105 48 115 51 9 3 53 22 105 46 28 12 53 22 58 21 4 -1 7 2 7 6 0 4 17
14 38 21 20 7 65 26 100 42 35 16 68 29 73 29 5 0 9 4 9 8 0 5 6 9 13 9 11 0
257 106 282 121 6 4 15 7 20 8 6 1 40 16 77 33 36 17 69 31 72 31 2 0 43 18
90 40 47 22 87 40 90 40 3 0 38 15 78 34 139 64 273 121 281 118 4 -1 7 2 7 7
0 5 11 12 25 15 13 3 62 24 109 46 47 22 90 40 95 40 6 0 11 5 11 11 0 5 4 8
9 4 6 -3 25 3 43 13 18 10 69 33 113 51 44 19 101 44 127 57 27 14 50 24 53
24 5 0 66 26 155 67 42 20 39 19 68 28 13 4 60 25 104 46 44 22 86 39 93 39 7
0 20 6 27 13 7 6 20 13 28 15 8 2 38 14 65 27 28 13 86 39 130 58 44 19 103
45 130 57 28 13 55 24 60 26 6 1 40 16 77 33 38 17 69 30 70 29 2 -1 17 5 33
14 52 27 184 88 191 88 3 0 40 16 81 35 41 19 81 35 88 35 7 0 18 7 25 15 7 8
20 15 29 15 9 0 43 13 76 29 107 51 250 113 263 114 6 0 12 4 12 9 0 4 6 8 13
8 8 0 40 13 73 29 32 15 76 34 97 42 20 7 37 16 37 19 0 4 6 7 13 7 6 1 75 29
152 63 190 84 189 83 198 82 4 -1 7 2 7 8 0 5 7 10 16 10 9 0 28 6 42 14 24
12 110 52 167 76 11 5 52 23 90 41 39 17 76 32 83 32 6 0 12 4 12 9 0 4 3 7 8
6 7 -1 32 9 140 59 31 14 62 27 68 28 7 2 40 16 75 33 35 16 80 36 99 45 19 8
69 30 110 49 41 18 77 33 80 33 3 1 30 13 60 27 30 14 100 45 155 68 55 23
121 53 146 66 26 13 49 20 53 17 3 -4 6 0 6 7 0 7 3 10 6 7 4 -4 19 0 33 8 39
21 189 87 219 96 4 2 37 18 74 36 37 18 70 33 73 33 6 0 61 24 151 66 28 13
53 24 57 24 3 0 36 14 74 32 37 17 70 32 73 33 6 2 34 14 128 56 34 15 62 25
62 21 0 -4 4 -1 9 6 4 7 14 15 22 16 8 2 37 13 64 25 28 13 95 42 150 66 55
24 161 70 235 103 l135 60 3 455 2 454 -257 128 c-142 71 -261 133 -264 138
-3 5 -9 8 -13 7 -9 -3 -299 142 -307 153 -3 5 -10 8 -15 8 -12 -2 -177 81
-185 92 -3 5 -9 8 -13 7 -4 -1 -459 224 -1011 500 -552 276 -1006 500 -1009
498 -2 -2 -12 4 -22 13 -11 9 -163 87 -339 174 -521 256 -3019 1504 -3030
1513 -5 4 -14 9 -18 9 -4 1 -335 165 -735 364 -1202 599 -1230 613 -1233 607z"/>
</g>
</svg>
